# xmcd
#
# Track frame offsets:
#	150
#	29668
#	68833
#	130057
#	184079
#	222795
#	256559
#
# Disc length: 3717 seconds
#
# Revision: 1
# Processed by: cddbd v1.5.2PL0 Copyright (c) Steve Scherf et al.
# Submitted via: audiograbber 1.83.01
#
DISCID=5d0e8307
DTITLE=Grateful Dead - 90-07-19 Deer Creek Music Centre, Noblesville IN
DYEAR=1900
DGENRE=
TTITLE0=Jack Straw
TTITLE1=They Love Each Other
TTITLE2=Desolation Row
TTITLE3=Row Jimmy
TTITLE4=Picasso Moon
TTITLE5=Althea
TTITLE6=Promised Land
EXTD=
EXTT0=
EXTT1=
EXTT2=
EXTT3=
EXTT4=
EXTT5=
EXTT6=
PLAYORDER=
